<?xml version="1.0" encoding="UTF-8"?>
<svg version="1.1" xmlns="http://www.w3.org/2000/svg" width="500" height="500">
<path d="M0 0 C8.91 0 17.82 0 27 0 C27 15.51 27 31.02 27 47 C42.84 47 58.68 47 75 47 C75 31.49 75 15.98 75 0 C83.91 0 92.82 0 102 0 C102 41.25 102 82.5 102 125 C93.09 125 84.18 125 75 125 C75 106.85 75 88.7 75 70 C59.16 70 43.32 70 27 70 C27 88.15 27 106.3 27 125 C18.09 125 9.18 125 0 125 C0 83.75 0 42.5 0 0 Z " fill="#0A0A0A" transform="translate(175,195)"/>
<path d="M0 0 C8.91 0 17.82 0 27 0 C27 8.58 27 17.16 27 26 C18.09 26 9.18 26 0 26 C0 17.42 0 8.84 0 0 Z " fill="#0F0F0F" transform="translate(300,294)"/>
</svg>
